<svg class="border shadow-md" viewBox="0 0 793.76 793.76" style="width: 793.76px; height: 793.76px;" xmlns="http://www.w3.org/2000/svg" preserveAspectRatio="none"><rect class="bg" id="bg" x="0" y="0" width="793.76" height="793.76" fill="#ffffff"/><path d="M 0 -66.14666666666666 L 0 -66.15&#10;                L 52.92 -20.15&#10;                L 158.752 -66.15 L 158.752 -66.15&#10;                L 236.75 -33.07&#10;                L 317.504 -66.15 L 317.504 -66.15&#10;                L 370.42 -4.15&#10;                L 476.25600000000003 -66.15 L 476.25600000000003 -66.15&#10;                L 565.26 -33.07&#10;                L 635.008 -66.15 L 635.008 -66.15&#10;                L 687.93 -33.07&#10;                L 793.76 -66.15 L 793.76 -66.15&#10;                L 896.76 -4.15&#10;                L 952.512 -66.15  V 793.76 H 0 V -66.15 Z" fill="#64DEA0"/><path d="M 0 0 L 0 0.00&#10;                L 52.92 33.07&#10;                L 158.752 0.00 L 158.752 0.00&#10;                L 211.67 34.00&#10;                L 317.504 0.00 L 317.504 0.00&#10;                L 370.42 33.07&#10;                L 476.25600000000003 0.00 L 476.25600000000003 0.00&#10;                L 529.17 33.07&#10;                L 635.008 0.00 L 635.008 0.00&#10;                L 696.01 33.07&#10;                L 793.76 0.00 L 793.76 0.00&#10;                L 889.76 33.07&#10;                L 952.512 0.00  V 793.76 H 0 V 0.00 Z" fill="#6dd4a0"/><path d="M 0 66.14666666666666 L 0 66.15&#10;                L 52.92 116.15&#10;                L 158.752 66.15 L 158.752 66.15&#10;                L 216.75 99.22&#10;                L 317.504 66.15 L 317.504 66.15&#10;                L 370.42 99.22&#10;                L 476.25600000000003 66.15 L 476.25600000000003 66.15&#10;                L 554.26 127.15&#10;                L 635.008 66.15 L 635.008 66.15&#10;                L 693.01 106.15&#10;                L 793.76 66.15 L 793.76 66.15&#10;                L 846.68 108.15&#10;                L 952.512 66.15  V 793.76 H 0 V 66.15 Z" fill="#76caa0"/><path d="M 0 132.29333333333332 L 0 132.29&#10;                L 53.00 182.29&#10;                L 158.752 132.29 L 158.752 132.29&#10;                L 211.67 165.37&#10;                L 317.504 132.29 L 317.504 132.29&#10;                L 377.50 165.37&#10;                L 476.25600000000003 132.29 L 476.25600000000003 132.29&#10;                L 529.17 165.37&#10;                L 635.008 132.29 L 635.008 132.29&#10;                L 700.01 165.37&#10;                L 793.76 132.29 L 793.76 132.29&#10;                L 877.76 165.37&#10;                L 952.512 132.29  V 793.76 H 0 V 132.29 Z" fill="#7fc0a0"/><path d="M 0 198.44 L 0 198.44&#10;                L 100.00 254.44&#10;                L 158.752 198.44 L 158.752 198.44&#10;                L 211.67 258.44&#10;                L 317.504 198.44 L 317.504 198.44&#10;                L 400.50 242.44&#10;                L 476.25600000000003 198.44 L 476.25600000000003 198.44&#10;                L 529.17 246.44&#10;                L 635.008 198.44 L 635.008 198.44&#10;                L 712.01 231.51&#10;                L 793.76 198.44 L 793.76 198.44&#10;                L 846.68 252.44&#10;                L 952.512 198.44  V 793.76 H 0 V 198.44 Z" fill="#88b6a0"/><path d="M 0 264.58666666666664 L 0 264.59&#10;                L 83.00 313.59&#10;                L 158.752 264.59 L 158.752 264.59&#10;                L 262.75 297.66&#10;                L 317.504 264.59 L 317.504 264.59&#10;                L 370.42 324.59&#10;                L 476.25600000000003 264.59 L 476.25600000000003 264.59&#10;                L 529.17 297.66&#10;                L 635.008 264.59 L 635.008 264.59&#10;                L 723.01 297.66&#10;                L 793.76 264.59 L 793.76 264.59&#10;                L 889.76 305.59&#10;                L 952.512 264.59  V 793.76 H 0 V 264.59 Z" fill="#91aca0"/><path d="M 0 330.7333333333333 L 0 330.73&#10;                L 52.92 363.81&#10;                L 158.752 330.73 L 158.752 330.73&#10;                L 211.67 385.73&#10;                L 317.504 330.73 L 317.504 330.73&#10;                L 370.42 363.81&#10;                L 476.25600000000003 330.73 L 476.25600000000003 330.73&#10;                L 529.17 391.73&#10;                L 635.008 330.73 L 635.008 330.73&#10;                L 735.01 363.81&#10;                L 793.76 330.73 L 793.76 330.73&#10;                L 847.76 366.73&#10;                L 952.512 330.73  V 793.76 H 0 V 330.73 Z" fill="#9aa2a0"/><path d="M 0 396.88 L 0 396.88&#10;                L 52.92 429.95&#10;                L 158.752 396.88 L 158.752 396.88&#10;                L 215.75 455.88&#10;                L 317.504 396.88 L 317.504 396.88&#10;                L 376.50 429.95&#10;                L 476.25600000000003 396.88 L 476.25600000000003 396.88&#10;                L 562.26 436.88&#10;                L 635.008 396.88 L 635.008 396.88&#10;                L 687.93 448.88&#10;                L 793.76 396.88 L 793.76 396.88&#10;                L 846.68 429.95&#10;                L 952.512 396.88  V 793.76 H 0 V 396.88 Z" fill="#a398a0"/><path d="M 0 463.02666666666664 L 0 463.03&#10;                L 52.92 525.03&#10;                L 158.752 463.03 L 158.752 463.03&#10;                L 216.75 496.10&#10;                L 317.504 463.03 L 317.504 463.03&#10;                L 410.50 496.10&#10;                L 476.25600000000003 463.03 L 476.25600000000003 463.03&#10;                L 529.17 519.03&#10;                L 635.008 463.03 L 635.008 463.03&#10;                L 687.93 496.10&#10;                L 793.76 463.03 L 793.76 463.03&#10;                L 846.68 523.03&#10;                L 952.512 463.03  V 793.76 H 0 V 463.03 Z" fill="#ac8ea0"/><path d="M 0 529.1733333333333 L 0 529.17&#10;                L 85.00 562.25&#10;                L 158.752 529.17 L 158.752 529.17&#10;                L 211.67 562.25&#10;                L 317.504 529.17 L 317.504 529.17&#10;                L 370.42 588.17&#10;                L 476.25600000000003 529.17 L 476.25600000000003 529.17&#10;                L 529.17 562.25&#10;                L 635.008 529.17 L 635.008 529.17&#10;                L 687.93 562.25&#10;                L 793.76 529.17 L 793.76 529.17&#10;                L 846.68 562.25&#10;                L 952.512 529.17  V 793.76 H 0 V 529.17 Z" fill="#b584a0"/><path d="M 0 595.3199999999999 L 0 595.32&#10;                L 92.00 628.39&#10;                L 158.752 595.32 L 158.752 595.32&#10;                L 234.75 628.39&#10;                L 317.504 595.32 L 317.504 595.32&#10;                L 370.42 628.39&#10;                L 476.25600000000003 595.32 L 476.25600000000003 595.32&#10;                L 529.17 628.39&#10;                L 635.008 595.32 L 635.008 595.32&#10;                L 718.01 650.32&#10;                L 793.76 595.32 L 793.76 595.32&#10;                L 846.68 628.39&#10;                L 952.512 595.32  V 793.76 H 0 V 595.32 Z" fill="#be7aa0"/><path d="M 0 661.4666666666666 L 0 661.47&#10;                L 68.00 721.47&#10;                L 158.752 661.47 L 158.752 661.47&#10;                L 211.67 694.54&#10;                L 317.504 661.47 L 317.504 661.47&#10;                L 370.42 710.47&#10;                L 476.25600000000003 661.47 L 476.25600000000003 661.47&#10;                L 529.17 694.54&#10;                L 635.008 661.47 L 635.008 661.47&#10;                L 707.01 694.54&#10;                L 793.76 661.47 L 793.76 661.47&#10;                L 854.76 704.47&#10;                L 952.512 661.47  V 793.76 H 0 V 661.47 Z" fill="#c770a0"/><path d="M 0 727.6133333333332 L 0 727.61&#10;                L 79.00 784.61&#10;                L 158.752 727.61 L 158.752 727.61&#10;                L 272.75 760.69&#10;                L 317.504 727.61 L 317.504 727.61&#10;                L 395.50 760.69&#10;                L 476.25600000000003 727.61 L 476.25600000000003 727.61&#10;                L 547.26 784.61&#10;                L 635.008 727.61 L 635.008 727.61&#10;                L 727.01 760.69&#10;                L 793.76 727.61 L 793.76 727.61&#10;                L 888.76 760.69&#10;                L 952.512 727.61  V 793.76 H 0 V 727.61 Z" fill="#d066a0"/></svg>