<svg class="border shadow-md" viewBox="0 0 793.76 793.76" style="width: 793.76px; height: 793.76px;" xmlns="http://www.w3.org/2000/svg" preserveAspectRatio="none"><rect class="bg" id="bg" x="0" y="0" width="793.76" height="793.76" fill="#ffffff"/><g transform="rotate(0 396.88 396.88)"><path d="M -496.88 -83.39 S -435.00 -191.39&#10;            0.00 -83.39 208.88 -142.39&#10;            496.88 -83.39 699.76 -140.09&#10;            993.76 -83.39 1003.64 -140.09&#10;            1490.64 -83.39 h 110 V 993.76 H -496.88 Z" fill="#64DEA0" id="-1"/><path d="M -496.88 30.00 S -258.44 -26.70&#10;            0.00 30.00 238.44 -39.00&#10;            496.88 30.00 730.76 -66.00&#10;            993.76 30.00 1112.64 -57.00&#10;            1490.64 30.00 h 110 V 993.76 H -496.88 Z" fill="#5dd99a" id="0"/><path id="1" d="M -496.88 143.39 S -326.00 48.39&#10;            0.00 143.39 238.44 86.70&#10;            496.88 143.39 735.32 86.70&#10;            993.76 143.39 1232.20 53.39&#10;            1490.64 143.39 h 110 V 993.76 H -496.88 Z" fill="#56d494"/><path id="2" d="M -496.88 256.79 S -268.00 173.79&#10;            0.00 256.79 238.44 176.79&#10;            496.88 256.79 524.76 200.09&#10;            993.76 256.79 1083.64 180.79&#10;            1490.64 256.79 h 110 V 993.76 H -496.88 Z" fill="#4fcf8e"/><path id="3" d="M -496.88 370.18 S -478.00 313.49&#10;            0.00 370.18 238.44 297.18&#10;            496.88 370.18 628.76 303.18&#10;            993.76 370.18 1232.20 301.18&#10;            1490.64 370.18 h 110 V 993.76 H -496.88 Z" fill="#48ca88"/><path id="4" d="M -496.88 483.58 S -258.44 419.58&#10;            0.00 483.58 228.88 390.58&#10;            496.88 483.58 735.32 413.58&#10;            993.76 483.58 1232.20 411.58&#10;            1490.64 483.58 h 110 V 993.76 H -496.88 Z" fill="#41c582"/><path id="5" d="M -496.88 596.97 S -258.44 518.97&#10;            0.00 596.97 238.44 491.97&#10;            496.88 596.97 487.76 540.27&#10;            993.76 596.97 1177.64 540.27&#10;            1490.64 596.97 h 110 V 993.76 H -496.88 Z" fill="#3ac07c"/><path id="6" d="M -496.88 710.37 S -258.44 622.37&#10;            0.00 710.37 35.88 653.67&#10;            496.88 710.37 735.32 653.67&#10;            993.76 710.37 1143.64 653.67&#10;            1490.64 710.37 h 110 V 993.76 H -496.88 Z" fill="#33bb76"/></g></svg>