<svg xmlns="http://www.w3.org/2000/svg" xmlns:xlink="http://www.w3.org/1999/xlink" width="500" zoomAndPan="magnify" viewBox="0 0 375 374.999991" height="500" preserveAspectRatio="xMidYMid meet" version="1.0"><defs><g/><clipPath id="67bbffed21"><path d="M 102.339844 131.746094 L 185.65625 131.746094 L 185.65625 248.703125 L 102.339844 248.703125 Z M 102.339844 131.746094 " clip-rule="nonzero"/></clipPath><clipPath id="600f7988ff"><path d="M 189.460938 138 L 265.046875 138 L 265.046875 247.402344 L 189.460938 247.402344 Z M 189.460938 138 " clip-rule="nonzero"/></clipPath><clipPath id="00184f1337"><path d="M 115 86.890625 L 255 86.890625 L 255 190 L 115 190 Z M 115 86.890625 " clip-rule="nonzero"/></clipPath></defs><rect x="-37.5" width="450" fill="#ffffff" y="-37.499999" height="449.999989" fill-opacity="1"/><rect x="-37.5" width="450" fill="#ffffff" y="-37.499999" height="449.999989" fill-opacity="1"/><g clip-path="url(#67bbffed21)"><path fill="#698982" d="M 121.855469 171.792969 C 146.488281 182.453125 166.25 214.960938 178.660156 243.9375 C 180.050781 239.980469 181.214844 236.234375 182.164062 232.691406 C 199.039062 169.710938 148.722656 169.773438 122.804688 147.699219 C 118.066406 143.660156 113.550781 138.003906 110.933594 131.863281 C 105.4375 142.847656 102.339844 155.246094 102.339844 168.375 C 102.339844 208.582031 131.359375 241.988281 169.546875 248.703125 C 162.503906 224.347656 148.804688 194.277344 121.855469 171.792969 " fill-opacity="1" fill-rule="nonzero"/></g><g clip-path="url(#600f7988ff)"><path fill="#698982" d="M 265.046875 168.375 C 265.046875 157.640625 262.976562 147.390625 259.214844 138.003906 C 256.894531 144.058594 251.859375 149.542969 247.230469 153.488281 C 223.382812 173.800781 177.082031 173.742188 192.609375 231.699219 C 193.484375 234.957031 194.554688 238.40625 195.835938 242.046875 C 207.253906 215.378906 225.441406 185.46875 248.105469 175.65625 C 222.890625 196.699219 210.445312 224.746094 204.066406 247.355469 C 204.066406 247.355469 204.070312 247.355469 204.070312 247.355469 C 239.140625 238.289062 265.046875 206.367188 265.046875 168.375 " fill-opacity="1" fill-rule="nonzero"/></g><g clip-path="url(#00184f1337)"><path fill="#e1e70a" d="M 115.671875 124.957031 C 115.671875 124.957031 130.726562 136.515625 153.347656 151.765625 C 152.890625 152.675781 152.464844 153.605469 152.085938 154.5625 C 147.9375 153.480469 143.984375 152.484375 140.261719 151.5625 C 143.210938 153.164062 146.292969 154.714844 149.441406 156.300781 C 161.914062 162.582031 174.808594 169.074219 183.191406 180.695312 C 185.085938 183.328125 186.667969 186.128906 187.949219 189.101562 C 194.140625 173.492188 221.316406 161.121094 223.199219 160.589844 C 228.414062 157.964844 233.402344 155.410156 237.820312 152.5 C 231.492188 153.59375 224.152344 154.925781 216.078125 156.511719 C 215.757812 155.53125 215.390625 154.578125 214.988281 153.640625 C 238.488281 139.796875 254.214844 129.175781 254.214844 129.175781 C 254.214844 129.175781 236.699219 136.46875 212.214844 148.484375 C 211.652344 147.628906 211.058594 146.796875 210.425781 145.996094 C 229.554688 126.523438 242.003906 112.183594 242.003906 112.183594 C 242.003906 112.183594 226.972656 123.769531 206.421875 141.730469 C 205.664062 141.050781 204.871094 140.402344 204.050781 139.789062 C 217.503906 116.015625 225.828125 98.933594 225.828125 98.933594 C 225.828125 98.933594 214.296875 114.027344 199.089844 136.703125 C 198.179688 136.242188 197.25 135.816406 196.296875 135.4375 C 203.148438 108.992188 206.777344 90.335938 206.777344 90.335938 C 206.777344 90.335938 199.535156 107.90625 190.699219 133.761719 C 189.707031 133.554688 188.699219 133.390625 187.675781 133.273438 C 187.46875 105.941406 186.160156 86.972656 186.160156 86.972656 C 186.160156 86.972656 183.699219 105.824219 181.839844 133.09375 C 180.8125 133.152344 179.796875 133.253906 178.792969 133.398438 C 171.539062 107.054688 165.375 89.074219 165.375 89.074219 C 165.375 89.074219 167.867188 107.917969 173.105469 134.730469 C 172.132812 135.054688 171.175781 135.421875 170.242188 135.824219 C 156.433594 112.265625 145.839844 96.5 145.839844 96.5 C 145.839844 96.5 153.113281 114.058594 165.101562 138.605469 C 164.246094 139.164062 163.417969 139.761719 162.617188 140.398438 C 143.195312 121.21875 128.886719 108.738281 128.886719 108.738281 C 128.886719 108.738281 140.449219 123.8125 158.363281 144.410156 C 157.683594 145.171875 157.039062 145.964844 156.425781 146.789062 C 132.714844 133.304688 115.671875 124.957031 115.671875 124.957031 " fill-opacity="1" fill-rule="nonzero"/></g><g fill="#698982" fill-opacity="1"><g transform="translate(76.545004, 292.74268)"><g><path d="M 14.703125 -2.171875 C 15.117188 -1.109375 15.71875 -0.554688 16.5 -0.515625 L 16.5 0 C 15.800781 -0.0507812 14.875 -0.078125 13.71875 -0.078125 C 12.226562 -0.078125 11.125 -0.0507812 10.40625 0 L 10.40625 -0.515625 C 11.0625 -0.554688 11.53125 -0.640625 11.8125 -0.765625 C 12.101562 -0.890625 12.25 -1.128906 12.25 -1.484375 C 12.25 -1.773438 12.144531 -2.179688 11.9375 -2.703125 L 10.34375 -6.953125 L 4.078125 -6.953125 L 3.015625 -4.203125 C 2.660156 -3.265625 2.484375 -2.554688 2.484375 -2.078125 C 2.484375 -1.535156 2.671875 -1.144531 3.046875 -0.90625 C 3.421875 -0.664062 3.988281 -0.535156 4.75 -0.515625 L 4.75 0 C 3.757812 -0.0507812 2.765625 -0.078125 1.765625 -0.078125 C 0.984375 -0.078125 0.332031 -0.0507812 -0.1875 0 L -0.1875 -0.515625 C 0.675781 -0.722656 1.363281 -1.476562 1.875 -2.78125 L 7.96875 -18.5 L 8.375 -18.5 Z M 10.140625 -7.46875 L 7.234375 -15.21875 L 4.28125 -7.46875 Z M 10.140625 -7.46875 "/></g></g></g><g fill="#698982" fill-opacity="1"><g transform="translate(92.877839, 292.74268)"><g><path d="M 9.75 -18.734375 C 10.769531 -18.734375 11.609375 -18.585938 12.265625 -18.296875 C 12.921875 -18.015625 13.640625 -17.597656 14.421875 -17.046875 C 14.648438 -16.867188 14.820312 -16.78125 14.9375 -16.78125 C 15.269531 -16.78125 15.488281 -17.304688 15.59375 -18.359375 L 16.1875 -18.359375 C 16.113281 -17.234375 16.078125 -15.242188 16.078125 -12.390625 L 15.484375 -12.390625 C 15.328125 -13.304688 15.160156 -14.0625 14.984375 -14.65625 C 14.816406 -15.257812 14.550781 -15.785156 14.1875 -16.234375 C 13.6875 -16.859375 13.035156 -17.351562 12.234375 -17.71875 C 11.429688 -18.082031 10.585938 -18.265625 9.703125 -18.265625 C 8.554688 -18.265625 7.550781 -17.890625 6.6875 -17.140625 C 5.820312 -16.398438 5.15625 -15.34375 4.6875 -13.96875 C 4.226562 -12.59375 4 -10.988281 4 -9.15625 C 4 -6.039062 4.492188 -3.757812 5.484375 -2.3125 C 6.484375 -0.875 8.046875 -0.15625 10.171875 -0.15625 C 11.203125 -0.15625 12.097656 -0.421875 12.859375 -0.953125 C 13.171875 -1.160156 13.375 -1.363281 13.46875 -1.5625 C 13.570312 -1.769531 13.625 -2.046875 13.625 -2.390625 L 13.625 -4.875 C 13.625 -5.601562 13.550781 -6.128906 13.40625 -6.453125 C 13.269531 -6.785156 13.03125 -7.007812 12.6875 -7.125 C 12.34375 -7.25 11.78125 -7.328125 11 -7.359375 L 11 -7.890625 C 11.894531 -7.835938 13.113281 -7.8125 14.65625 -7.8125 C 15.832031 -7.8125 16.734375 -7.835938 17.359375 -7.890625 L 17.359375 -7.359375 C 16.953125 -7.328125 16.660156 -7.257812 16.484375 -7.15625 C 16.304688 -7.050781 16.1875 -6.851562 16.125 -6.5625 C 16.0625 -6.269531 16.03125 -5.796875 16.03125 -5.140625 L 16.03125 0 L 15.515625 0 C 15.492188 -0.34375 15.421875 -0.675781 15.296875 -1 C 15.179688 -1.320312 15.019531 -1.484375 14.8125 -1.484375 C 14.707031 -1.484375 14.601562 -1.457031 14.5 -1.40625 C 14.394531 -1.351562 14.210938 -1.226562 13.953125 -1.03125 C 13.347656 -0.570312 12.71875 -0.226562 12.0625 0 C 11.414062 0.238281 10.695312 0.359375 9.90625 0.359375 C 8.125 0.359375 6.597656 -0.00390625 5.328125 -0.734375 C 4.054688 -1.472656 3.082031 -2.53125 2.40625 -3.90625 C 1.738281 -5.289062 1.40625 -6.945312 1.40625 -8.875 C 1.40625 -10.84375 1.757812 -12.570312 2.46875 -14.0625 C 3.1875 -15.5625 4.175781 -16.710938 5.4375 -17.515625 C 6.707031 -18.328125 8.144531 -18.734375 9.75 -18.734375 Z M 9.75 -18.734375 "/></g></g></g><g fill="#698982" fill-opacity="1"><g transform="translate(111.103207, 292.74268)"><g><path d="M 17.125 -1.296875 C 16.71875 -0.710938 16.316406 -0.289062 15.921875 -0.03125 C 15.523438 0.226562 15 0.359375 14.34375 0.359375 C 13.632812 0.359375 13.050781 0.15625 12.59375 -0.25 C 12.132812 -0.664062 11.789062 -1.394531 11.5625 -2.4375 L 11 -5.03125 C 10.789062 -5.925781 10.59375 -6.613281 10.40625 -7.09375 C 10.226562 -7.582031 9.957031 -7.972656 9.59375 -8.265625 C 9.226562 -8.566406 8.71875 -8.71875 8.0625 -8.71875 L 5.609375 -8.71875 L 5.609375 -2.75 C 5.609375 -2.09375 5.65625 -1.613281 5.75 -1.3125 C 5.851562 -1.019531 6.046875 -0.820312 6.328125 -0.71875 C 6.617188 -0.625 7.078125 -0.554688 7.703125 -0.515625 L 7.703125 0 C 6.910156 -0.0507812 5.8125 -0.078125 4.40625 -0.078125 C 2.914062 -0.078125 1.8125 -0.0507812 1.09375 0 L 1.09375 -0.515625 C 1.707031 -0.554688 2.15625 -0.625 2.4375 -0.71875 C 2.726562 -0.820312 2.925781 -1.019531 3.03125 -1.3125 C 3.132812 -1.613281 3.1875 -2.09375 3.1875 -2.75 L 3.1875 -15.609375 C 3.1875 -16.265625 3.132812 -16.738281 3.03125 -17.03125 C 2.925781 -17.332031 2.726562 -17.535156 2.4375 -17.640625 C 2.15625 -17.742188 1.707031 -17.8125 1.09375 -17.84375 L 1.09375 -18.359375 C 1.8125 -18.304688 2.863281 -18.28125 4.25 -18.28125 L 7.0625 -18.3125 C 7.382812 -18.332031 7.753906 -18.34375 8.171875 -18.34375 C 10.171875 -18.34375 11.710938 -17.921875 12.796875 -17.078125 C 13.878906 -16.242188 14.421875 -15.160156 14.421875 -13.828125 C 14.421875 -13.148438 14.257812 -12.46875 13.9375 -11.78125 C 13.625 -11.101562 13.085938 -10.488281 12.328125 -9.9375 C 11.578125 -9.394531 10.597656 -9.03125 9.390625 -8.84375 L 9.703125 -8.796875 C 10.835938 -8.597656 11.664062 -8.25 12.1875 -7.75 C 12.707031 -7.25 13.085938 -6.457031 13.328125 -5.375 L 13.984375 -2.71875 C 14.148438 -1.925781 14.328125 -1.375 14.515625 -1.0625 C 14.710938 -0.75 14.972656 -0.59375 15.296875 -0.59375 C 15.597656 -0.59375 15.847656 -0.671875 16.046875 -0.828125 C 16.242188 -0.984375 16.472656 -1.234375 16.734375 -1.578125 Z M 7.515625 -17.84375 C 6.984375 -17.84375 6.582031 -17.78125 6.3125 -17.65625 C 6.039062 -17.539062 5.851562 -17.328125 5.75 -17.015625 C 5.65625 -16.703125 5.609375 -16.234375 5.609375 -15.609375 L 5.609375 -9.234375 L 7.34375 -9.234375 C 9.050781 -9.234375 10.222656 -9.613281 10.859375 -10.375 C 11.503906 -11.132812 11.828125 -12.191406 11.828125 -13.546875 C 11.828125 -14.960938 11.488281 -16.03125 10.8125 -16.75 C 10.132812 -17.476562 9.035156 -17.84375 7.515625 -17.84375 Z M 7.515625 -17.84375 "/></g></g></g><g fill="#698982" fill-opacity="1"><g transform="translate(127.902702, 292.74268)"><g><path d="M 7.703125 -17.84375 C 7.078125 -17.8125 6.617188 -17.742188 6.328125 -17.640625 C 6.046875 -17.535156 5.851562 -17.332031 5.75 -17.03125 C 5.65625 -16.738281 5.609375 -16.265625 5.609375 -15.609375 L 5.609375 -2.75 C 5.609375 -2.09375 5.65625 -1.613281 5.75 -1.3125 C 5.851562 -1.019531 6.046875 -0.820312 6.328125 -0.71875 C 6.617188 -0.625 7.078125 -0.554688 7.703125 -0.515625 L 7.703125 0 C 6.910156 -0.0507812 5.8125 -0.078125 4.40625 -0.078125 C 2.914062 -0.078125 1.8125 -0.0507812 1.09375 0 L 1.09375 -0.515625 C 1.707031 -0.554688 2.15625 -0.625 2.4375 -0.71875 C 2.726562 -0.820312 2.925781 -1.019531 3.03125 -1.3125 C 3.132812 -1.613281 3.1875 -2.09375 3.1875 -2.75 L 3.1875 -15.609375 C 3.1875 -16.265625 3.132812 -16.738281 3.03125 -17.03125 C 2.925781 -17.332031 2.726562 -17.535156 2.4375 -17.640625 C 2.15625 -17.742188 1.707031 -17.8125 1.09375 -17.84375 L 1.09375 -18.359375 C 1.8125 -18.304688 2.914062 -18.28125 4.40625 -18.28125 C 5.789062 -18.28125 6.890625 -18.304688 7.703125 -18.359375 Z M 7.703125 -17.84375 "/></g></g></g><g fill="#698982" fill-opacity="1"><g transform="translate(136.691323, 292.74268)"><g><path d="M 14.6875 -2.09375 C 14.976562 -1.664062 15.300781 -1.328125 15.65625 -1.078125 C 16.007812 -0.828125 16.445312 -0.640625 16.96875 -0.515625 L 16.96875 0 C 16.132812 -0.0507812 15.09375 -0.078125 13.84375 -0.078125 C 12.914062 -0.078125 12.023438 -0.0507812 11.171875 0 L 11.171875 -0.515625 C 11.585938 -0.535156 11.890625 -0.585938 12.078125 -0.671875 C 12.273438 -0.753906 12.375 -0.882812 12.375 -1.0625 C 12.375 -1.238281 12.285156 -1.445312 12.109375 -1.6875 L 8.328125 -7.390625 C 7.828125 -8.148438 7.398438 -8.644531 7.046875 -8.875 C 6.703125 -9.113281 6.222656 -9.25 5.609375 -9.28125 L 5.609375 -2.75 C 5.609375 -2.09375 5.65625 -1.613281 5.75 -1.3125 C 5.851562 -1.019531 6.046875 -0.820312 6.328125 -0.71875 C 6.617188 -0.625 7.078125 -0.554688 7.703125 -0.515625 L 7.703125 0 C 6.910156 -0.0507812 5.8125 -0.078125 4.40625 -0.078125 C 2.914062 -0.078125 1.8125 -0.0507812 1.09375 0 L 1.09375 -0.515625 C 1.707031 -0.554688 2.15625 -0.625 2.4375 -0.71875 C 2.726562 -0.820312 2.925781 -1.019531 3.03125 -1.3125 C 3.132812 -1.613281 3.1875 -2.09375 3.1875 -2.75 L 3.1875 -15.609375 C 3.1875 -16.265625 3.132812 -16.738281 3.03125 -17.03125 C 2.925781 -17.332031 2.726562 -17.535156 2.4375 -17.640625 C 2.15625 -17.742188 1.707031 -17.8125 1.09375 -17.84375 L 1.09375 -18.359375 C 1.8125 -18.304688 2.914062 -18.28125 4.40625 -18.28125 C 5.789062 -18.28125 6.890625 -18.304688 7.703125 -18.359375 L 7.703125 -17.84375 C 7.078125 -17.8125 6.617188 -17.742188 6.328125 -17.640625 C 6.046875 -17.535156 5.851562 -17.332031 5.75 -17.03125 C 5.65625 -16.738281 5.609375 -16.265625 5.609375 -15.609375 L 5.609375 -9.796875 C 6.867188 -9.847656 7.851562 -10.332031 8.5625 -11.25 L 11.046875 -14.421875 C 11.929688 -15.515625 12.375 -16.34375 12.375 -16.90625 C 12.375 -17.507812 11.835938 -17.820312 10.765625 -17.84375 L 10.765625 -18.359375 C 11.753906 -18.304688 12.75 -18.28125 13.75 -18.28125 C 14.695312 -18.28125 15.429688 -18.304688 15.953125 -18.359375 L 15.953125 -17.84375 C 15.378906 -17.757812 14.84375 -17.570312 14.34375 -17.28125 C 13.84375 -17 13.359375 -16.554688 12.890625 -15.953125 L 8.65625 -10.53125 Z M 14.6875 -2.09375 "/></g></g></g><g fill="#698982" fill-opacity="1"><g transform="translate(153.672284, 292.74268)"><g><path d="M 16.984375 -17.84375 C 16.378906 -17.8125 15.929688 -17.722656 15.640625 -17.578125 C 15.347656 -17.429688 15.148438 -17.1875 15.046875 -16.84375 C 14.941406 -16.507812 14.890625 -16.015625 14.890625 -15.359375 L 14.890625 -7.546875 C 14.890625 -6.304688 14.804688 -5.238281 14.640625 -4.34375 C 14.472656 -3.457031 14.203125 -2.691406 13.828125 -2.046875 C 13.390625 -1.304688 12.75 -0.71875 11.90625 -0.28125 C 11.070312 0.144531 10.128906 0.359375 9.078125 0.359375 C 7.171875 0.359375 5.71875 -0.101562 4.71875 -1.03125 C 3.957031 -1.738281 3.445312 -2.539062 3.1875 -3.4375 C 2.925781 -4.34375 2.796875 -5.6875 2.796875 -7.46875 L 2.796875 -15.609375 C 2.796875 -16.265625 2.742188 -16.738281 2.640625 -17.03125 C 2.535156 -17.332031 2.34375 -17.535156 2.0625 -17.640625 C 1.78125 -17.742188 1.328125 -17.8125 0.703125 -17.84375 L 0.703125 -18.359375 C 1.429688 -18.304688 2.535156 -18.28125 4.015625 -18.28125 C 5.421875 -18.28125 6.519531 -18.304688 7.3125 -18.359375 L 7.3125 -17.84375 C 6.6875 -17.8125 6.234375 -17.742188 5.953125 -17.640625 C 5.671875 -17.535156 5.476562 -17.332031 5.375 -17.03125 C 5.269531 -16.738281 5.21875 -16.265625 5.21875 -15.609375 L 5.21875 -7.03125 C 5.21875 -5.644531 5.3125 -4.492188 5.5 -3.578125 C 5.6875 -2.660156 6.078125 -1.925781 6.671875 -1.375 C 7.273438 -0.820312 8.15625 -0.546875 9.3125 -0.546875 C 11.144531 -0.546875 12.429688 -1.132812 13.171875 -2.3125 C 13.921875 -3.488281 14.296875 -5.140625 14.296875 -7.265625 L 14.296875 -15.359375 C 14.296875 -16.285156 14.125 -16.921875 13.78125 -17.265625 C 13.445312 -17.617188 12.832031 -17.8125 11.9375 -17.84375 L 11.9375 -18.359375 C 12.550781 -18.304688 13.429688 -18.28125 14.578125 -18.28125 C 15.617188 -18.28125 16.421875 -18.304688 16.984375 -18.359375 Z M 16.984375 -17.84375 "/></g></g></g><g fill="#698982" fill-opacity="1"><g transform="translate(171.353229, 292.74268)"><g><path d="M 7.703125 -17.84375 C 7.078125 -17.8125 6.617188 -17.742188 6.328125 -17.640625 C 6.046875 -17.535156 5.851562 -17.332031 5.75 -17.03125 C 5.65625 -16.738281 5.609375 -16.265625 5.609375 -15.609375 L 5.609375 -2.75 C 5.609375 -2.09375 5.65625 -1.613281 5.75 -1.3125 C 5.851562 -1.019531 6.046875 -0.828125 6.328125 -0.734375 C 6.617188 -0.640625 7.078125 -0.59375 7.703125 -0.59375 L 9.59375 -0.59375 C 10.664062 -0.59375 11.484375 -0.742188 12.046875 -1.046875 C 12.609375 -1.347656 13.019531 -1.835938 13.28125 -2.515625 C 13.539062 -3.191406 13.726562 -4.171875 13.84375 -5.453125 L 14.453125 -5.453125 C 14.398438 -4.910156 14.375 -4.195312 14.375 -3.3125 C 14.375 -2.332031 14.429688 -1.226562 14.546875 0 C 13.367188 -0.0507812 11.390625 -0.078125 8.609375 -0.078125 C 5.285156 -0.078125 2.78125 -0.0507812 1.09375 0 L 1.09375 -0.515625 C 1.707031 -0.554688 2.15625 -0.625 2.4375 -0.71875 C 2.726562 -0.820312 2.925781 -1.019531 3.03125 -1.3125 C 3.132812 -1.613281 3.1875 -2.09375 3.1875 -2.75 L 3.1875 -15.609375 C 3.1875 -16.265625 3.132812 -16.738281 3.03125 -17.03125 C 2.925781 -17.332031 2.726562 -17.535156 2.4375 -17.640625 C 2.15625 -17.742188 1.707031 -17.8125 1.09375 -17.84375 L 1.09375 -18.359375 C 1.8125 -18.304688 2.914062 -18.28125 4.40625 -18.28125 C 5.789062 -18.28125 6.890625 -18.304688 7.703125 -18.359375 Z M 7.703125 -17.84375 "/></g></g></g><g fill="#698982" fill-opacity="1"><g transform="translate(186.597207, 292.74268)"><g><path d="M 15.359375 -18.359375 C 15.234375 -17.128906 15.171875 -16.023438 15.171875 -15.046875 C 15.171875 -14.179688 15.195312 -13.472656 15.25 -12.921875 L 14.65625 -12.921875 C 14.519531 -14.253906 14.347656 -15.242188 14.140625 -15.890625 C 13.929688 -16.535156 13.566406 -17.007812 13.046875 -17.3125 C 12.523438 -17.613281 11.726562 -17.765625 10.65625 -17.765625 L 9.265625 -17.765625 L 9.265625 -3.015625 C 9.265625 -2.285156 9.332031 -1.753906 9.46875 -1.421875 C 9.601562 -1.097656 9.84375 -0.875 10.1875 -0.75 C 10.539062 -0.632812 11.101562 -0.554688 11.875 -0.515625 L 11.875 0 C 10.976562 -0.0507812 9.707031 -0.078125 8.0625 -0.078125 C 6.332031 -0.078125 5.054688 -0.0507812 4.234375 0 L 4.234375 -0.515625 C 5.003906 -0.554688 5.5625 -0.632812 5.90625 -0.75 C 6.257812 -0.875 6.503906 -1.097656 6.640625 -1.421875 C 6.773438 -1.753906 6.84375 -2.285156 6.84375 -3.015625 L 6.84375 -17.765625 L 5.453125 -17.765625 C 4.378906 -17.765625 3.582031 -17.613281 3.0625 -17.3125 C 2.539062 -17.007812 2.175781 -16.535156 1.96875 -15.890625 C 1.757812 -15.242188 1.585938 -14.253906 1.453125 -12.921875 L 0.859375 -12.921875 C 0.910156 -13.472656 0.9375 -14.179688 0.9375 -15.046875 C 0.9375 -16.023438 0.875 -17.128906 0.75 -18.359375 C 2.1875 -18.304688 4.625 -18.28125 8.0625 -18.28125 C 11.488281 -18.28125 13.921875 -18.304688 15.359375 -18.359375 Z M 15.359375 -18.359375 "/></g></g></g><g fill="#698982" fill-opacity="1"><g transform="translate(202.696718, 292.74268)"><g><path d="M 16.984375 -17.84375 C 16.378906 -17.8125 15.929688 -17.722656 15.640625 -17.578125 C 15.347656 -17.429688 15.148438 -17.1875 15.046875 -16.84375 C 14.941406 -16.507812 14.890625 -16.015625 14.890625 -15.359375 L 14.890625 -7.546875 C 14.890625 -6.304688 14.804688 -5.238281 14.640625 -4.34375 C 14.472656 -3.457031 14.203125 -2.691406 13.828125 -2.046875 C 13.390625 -1.304688 12.75 -0.71875 11.90625 -0.28125 C 11.070312 0.144531 10.128906 0.359375 9.078125 0.359375 C 7.171875 0.359375 5.71875 -0.101562 4.71875 -1.03125 C 3.957031 -1.738281 3.445312 -2.539062 3.1875 -3.4375 C 2.925781 -4.34375 2.796875 -5.6875 2.796875 -7.46875 L 2.796875 -15.609375 C 2.796875 -16.265625 2.742188 -16.738281 2.640625 -17.03125 C 2.535156 -17.332031 2.34375 -17.535156 2.0625 -17.640625 C 1.78125 -17.742188 1.328125 -17.8125 0.703125 -17.84375 L 0.703125 -18.359375 C 1.429688 -18.304688 2.535156 -18.28125 4.015625 -18.28125 C 5.421875 -18.28125 6.519531 -18.304688 7.3125 -18.359375 L 7.3125 -17.84375 C 6.6875 -17.8125 6.234375 -17.742188 5.953125 -17.640625 C 5.671875 -17.535156 5.476562 -17.332031 5.375 -17.03125 C 5.269531 -16.738281 5.21875 -16.265625 5.21875 -15.609375 L 5.21875 -7.03125 C 5.21875 -5.644531 5.3125 -4.492188 5.5 -3.578125 C 5.6875 -2.660156 6.078125 -1.925781 6.671875 -1.375 C 7.273438 -0.820312 8.15625 -0.546875 9.3125 -0.546875 C 11.144531 -0.546875 12.429688 -1.132812 13.171875 -2.3125 C 13.921875 -3.488281 14.296875 -5.140625 14.296875 -7.265625 L 14.296875 -15.359375 C 14.296875 -16.285156 14.125 -16.921875 13.78125 -17.265625 C 13.445312 -17.617188 12.832031 -17.8125 11.9375 -17.84375 L 11.9375 -18.359375 C 12.550781 -18.304688 13.429688 -18.28125 14.578125 -18.28125 C 15.617188 -18.28125 16.421875 -18.304688 16.984375 -18.359375 Z M 16.984375 -17.84375 "/></g></g></g><g fill="#698982" fill-opacity="1"><g transform="translate(220.377663, 292.74268)"><g><path d="M 17.125 -1.296875 C 16.71875 -0.710938 16.316406 -0.289062 15.921875 -0.03125 C 15.523438 0.226562 15 0.359375 14.34375 0.359375 C 13.632812 0.359375 13.050781 0.15625 12.59375 -0.25 C 12.132812 -0.664062 11.789062 -1.394531 11.5625 -2.4375 L 11 -5.03125 C 10.789062 -5.925781 10.59375 -6.613281 10.40625 -7.09375 C 10.226562 -7.582031 9.957031 -7.972656 9.59375 -8.265625 C 9.226562 -8.566406 8.71875 -8.71875 8.0625 -8.71875 L 5.609375 -8.71875 L 5.609375 -2.75 C 5.609375 -2.09375 5.65625 -1.613281 5.75 -1.3125 C 5.851562 -1.019531 6.046875 -0.820312 6.328125 -0.71875 C 6.617188 -0.625 7.078125 -0.554688 7.703125 -0.515625 L 7.703125 0 C 6.910156 -0.0507812 5.8125 -0.078125 4.40625 -0.078125 C 2.914062 -0.078125 1.8125 -0.0507812 1.09375 0 L 1.09375 -0.515625 C 1.707031 -0.554688 2.15625 -0.625 2.4375 -0.71875 C 2.726562 -0.820312 2.925781 -1.019531 3.03125 -1.3125 C 3.132812 -1.613281 3.1875 -2.09375 3.1875 -2.75 L 3.1875 -15.609375 C 3.1875 -16.265625 3.132812 -16.738281 3.03125 -17.03125 C 2.925781 -17.332031 2.726562 -17.535156 2.4375 -17.640625 C 2.15625 -17.742188 1.707031 -17.8125 1.09375 -17.84375 L 1.09375 -18.359375 C 1.8125 -18.304688 2.863281 -18.28125 4.25 -18.28125 L 7.0625 -18.3125 C 7.382812 -18.332031 7.753906 -18.34375 8.171875 -18.34375 C 10.171875 -18.34375 11.710938 -17.921875 12.796875 -17.078125 C 13.878906 -16.242188 14.421875 -15.160156 14.421875 -13.828125 C 14.421875 -13.148438 14.257812 -12.46875 13.9375 -11.78125 C 13.625 -11.101562 13.085938 -10.488281 12.328125 -9.9375 C 11.578125 -9.394531 10.597656 -9.03125 9.390625 -8.84375 L 9.703125 -8.796875 C 10.835938 -8.597656 11.664062 -8.25 12.1875 -7.75 C 12.707031 -7.25 13.085938 -6.457031 13.328125 -5.375 L 13.984375 -2.71875 C 14.148438 -1.925781 14.328125 -1.375 14.515625 -1.0625 C 14.710938 -0.75 14.972656 -0.59375 15.296875 -0.59375 C 15.597656 -0.59375 15.847656 -0.671875 16.046875 -0.828125 C 16.242188 -0.984375 16.472656 -1.234375 16.734375 -1.578125 Z M 7.515625 -17.84375 C 6.984375 -17.84375 6.582031 -17.78125 6.3125 -17.65625 C 6.039062 -17.539062 5.851562 -17.328125 5.75 -17.015625 C 5.65625 -16.703125 5.609375 -16.234375 5.609375 -15.609375 L 5.609375 -9.234375 L 7.34375 -9.234375 C 9.050781 -9.234375 10.222656 -9.613281 10.859375 -10.375 C 11.503906 -11.132812 11.828125 -12.191406 11.828125 -13.546875 C 11.828125 -14.960938 11.488281 -16.03125 10.8125 -16.75 C 10.132812 -17.476562 9.035156 -17.84375 7.515625 -17.84375 Z M 7.515625 -17.84375 "/></g></g></g><g fill="#698982" fill-opacity="1"><g transform="translate(237.177159, 292.74268)"><g><path d="M 2.46875 -18.9375 C 2.726562 -18.9375 2.945312 -18.828125 3.125 -18.609375 C 3.300781 -18.390625 3.390625 -18.097656 3.390625 -17.734375 C 3.390625 -17.117188 3.335938 -16.488281 3.234375 -15.84375 C 3.140625 -15.207031 3.082031 -14.820312 3.0625 -14.6875 C 2.9375 -14.0625 2.796875 -13.210938 2.640625 -12.140625 L 2.28125 -12.140625 C 2.15625 -12.984375 2.023438 -13.757812 1.890625 -14.46875 C 1.785156 -15.0625 1.695312 -15.625 1.625 -16.15625 C 1.5625 -16.695312 1.53125 -17.21875 1.53125 -17.71875 C 1.53125 -18.082031 1.613281 -18.367188 1.78125 -18.578125 C 1.957031 -18.796875 2.1875 -18.914062 2.46875 -18.9375 Z M 2.46875 -18.9375 "/></g></g></g><g fill="#698982" fill-opacity="1"><g transform="translate(242.07701, 292.74268)"><g><path d="M 14.703125 -2.171875 C 15.117188 -1.109375 15.71875 -0.554688 16.5 -0.515625 L 16.5 0 C 15.800781 -0.0507812 14.875 -0.078125 13.71875 -0.078125 C 12.226562 -0.078125 11.125 -0.0507812 10.40625 0 L 10.40625 -0.515625 C 11.0625 -0.554688 11.53125 -0.640625 11.8125 -0.765625 C 12.101562 -0.890625 12.25 -1.128906 12.25 -1.484375 C 12.25 -1.773438 12.144531 -2.179688 11.9375 -2.703125 L 10.34375 -6.953125 L 4.078125 -6.953125 L 3.015625 -4.203125 C 2.660156 -3.265625 2.484375 -2.554688 2.484375 -2.078125 C 2.484375 -1.535156 2.671875 -1.144531 3.046875 -0.90625 C 3.421875 -0.664062 3.988281 -0.535156 4.75 -0.515625 L 4.75 0 C 3.757812 -0.0507812 2.765625 -0.078125 1.765625 -0.078125 C 0.984375 -0.078125 0.332031 -0.0507812 -0.1875 0 L -0.1875 -0.515625 C 0.675781 -0.722656 1.363281 -1.476562 1.875 -2.78125 L 7.96875 -18.5 L 8.375 -18.5 Z M 10.140625 -7.46875 L 7.234375 -15.21875 L 4.28125 -7.46875 Z M 10.140625 -7.46875 "/></g></g></g><g fill="#698982" fill-opacity="1"><g transform="translate(258.409845, 292.74268)"><g><path d="M 5.609375 -7.421875 L 5.609375 -2.75 C 5.609375 -2.09375 5.675781 -1.613281 5.8125 -1.3125 C 5.945312 -1.019531 6.1875 -0.820312 6.53125 -0.71875 C 6.882812 -0.625 7.445312 -0.554688 8.21875 -0.515625 L 8.21875 0 C 7.320312 -0.0507812 6.050781 -0.078125 4.40625 -0.078125 C 2.914062 -0.078125 1.8125 -0.0507812 1.09375 0 L 1.09375 -0.515625 C 1.707031 -0.554688 2.15625 -0.625 2.4375 -0.71875 C 2.726562 -0.820312 2.925781 -1.019531 3.03125 -1.3125 C 3.132812 -1.613281 3.1875 -2.09375 3.1875 -2.75 L 3.1875 -15.609375 C 3.1875 -16.265625 3.132812 -16.738281 3.03125 -17.03125 C 2.925781 -17.332031 2.726562 -17.535156 2.4375 -17.640625 C 2.15625 -17.742188 1.707031 -17.8125 1.09375 -17.84375 L 1.09375 -18.359375 C 1.8125 -18.304688 2.863281 -18.28125 4.25 -18.28125 L 7.0625 -18.3125 C 7.382812 -18.332031 7.753906 -18.34375 8.171875 -18.34375 C 10.191406 -18.34375 11.738281 -17.878906 12.8125 -16.953125 C 13.882812 -16.023438 14.421875 -14.785156 14.421875 -13.234375 C 14.421875 -12.273438 14.207031 -11.359375 13.78125 -10.484375 C 13.363281 -9.617188 12.644531 -8.890625 11.625 -8.296875 C 10.613281 -7.710938 9.269531 -7.421875 7.59375 -7.421875 Z M 7.515625 -17.84375 C 6.984375 -17.84375 6.582031 -17.78125 6.3125 -17.65625 C 6.039062 -17.539062 5.851562 -17.328125 5.75 -17.015625 C 5.65625 -16.703125 5.609375 -16.234375 5.609375 -15.609375 L 5.609375 -7.9375 L 7.34375 -7.9375 C 9.03125 -7.9375 10.195312 -8.390625 10.84375 -9.296875 C 11.5 -10.203125 11.828125 -11.414062 11.828125 -12.9375 C 11.828125 -14.613281 11.492188 -15.847656 10.828125 -16.640625 C 10.160156 -17.441406 9.054688 -17.84375 7.515625 -17.84375 Z M 7.515625 -17.84375 "/></g></g></g><g fill="#698982" fill-opacity="1"><g transform="translate(273.576048, 292.74268)"><g><path d="M 5.609375 -7.421875 L 5.609375 -2.75 C 5.609375 -2.09375 5.675781 -1.613281 5.8125 -1.3125 C 5.945312 -1.019531 6.1875 -0.820312 6.53125 -0.71875 C 6.882812 -0.625 7.445312 -0.554688 8.21875 -0.515625 L 8.21875 0 C 7.320312 -0.0507812 6.050781 -0.078125 4.40625 -0.078125 C 2.914062 -0.078125 1.8125 -0.0507812 1.09375 0 L 1.09375 -0.515625 C 1.707031 -0.554688 2.15625 -0.625 2.4375 -0.71875 C 2.726562 -0.820312 2.925781 -1.019531 3.03125 -1.3125 C 3.132812 -1.613281 3.1875 -2.09375 3.1875 -2.75 L 3.1875 -15.609375 C 3.1875 -16.265625 3.132812 -16.738281 3.03125 -17.03125 C 2.925781 -17.332031 2.726562 -17.535156 2.4375 -17.640625 C 2.15625 -17.742188 1.707031 -17.8125 1.09375 -17.84375 L 1.09375 -18.359375 C 1.8125 -18.304688 2.863281 -18.28125 4.25 -18.28125 L 7.0625 -18.3125 C 7.382812 -18.332031 7.753906 -18.34375 8.171875 -18.34375 C 10.191406 -18.34375 11.738281 -17.878906 12.8125 -16.953125 C 13.882812 -16.023438 14.421875 -14.785156 14.421875 -13.234375 C 14.421875 -12.273438 14.207031 -11.359375 13.78125 -10.484375 C 13.363281 -9.617188 12.644531 -8.890625 11.625 -8.296875 C 10.613281 -7.710938 9.269531 -7.421875 7.59375 -7.421875 Z M 7.515625 -17.84375 C 6.984375 -17.84375 6.582031 -17.78125 6.3125 -17.65625 C 6.039062 -17.539062 5.851562 -17.328125 5.75 -17.015625 C 5.65625 -16.703125 5.609375 -16.234375 5.609375 -15.609375 L 5.609375 -7.9375 L 7.34375 -7.9375 C 9.03125 -7.9375 10.195312 -8.390625 10.84375 -9.296875 C 11.5 -10.203125 11.828125 -11.414062 11.828125 -12.9375 C 11.828125 -14.613281 11.492188 -15.847656 10.828125 -16.640625 C 10.160156 -17.441406 9.054688 -17.84375 7.515625 -17.84375 Z M 7.515625 -17.84375 "/></g></g></g></svg>